<svg width="142" height="30" viewBox="0 0 142 30" fill="none" xmlns="http://www.w3.org/2000/svg">
<path d="M46.7939 8.10645C48.6396 8.10645 50.1016 8.69531 51.1797 9.87305C52.2637 11.0508 52.8057 12.6475 52.8057 14.6631C52.8057 16.6787 52.2637 18.2754 51.1797 19.4531C50.1016 20.625 48.6396 21.2109 46.7939 21.2109C44.9424 21.2109 43.4746 20.625 42.3906 19.4531C41.3125 18.2754 40.7734 16.6787 40.7734 14.6631C40.7734 12.6475 41.3125 11.0508 42.3906 9.87305C43.4746 8.69531 44.9424 8.10645 46.7939 8.10645ZM49.4922 11.2969C48.8242 10.459 47.9248 10.04 46.7939 10.04C45.6631 10.04 44.7637 10.4561 44.0957 11.2881C43.4277 12.1201 43.0938 13.2451 43.0938 14.6631C43.0938 16.0752 43.4277 17.1973 44.0957 18.0293C44.7637 18.8613 45.6631 19.2773 46.7939 19.2773C47.9248 19.2773 48.8242 18.8613 49.4922 18.0293C50.1602 17.1973 50.4941 16.0752 50.4941 14.6631C50.4941 13.251 50.1602 12.1289 49.4922 11.2969ZM67.8789 21H65.8398V12H65.7783L62.1133 20.8945H60.5664L56.9014 12H56.8398V21H54.792V8.31738H57.4199L61.3047 17.8887H61.375L65.2598 8.31738H67.8789V21ZM83.3828 21H81.3438V12H81.2822L77.6172 20.8945H76.0703L72.4053 12H72.3438V21H70.2959V8.31738H72.9238L76.8086 17.8887H76.8789L80.7637 8.31738H83.3828V21ZM85.7119 8.31738H90.6426C91.9082 8.31738 92.9365 8.70996 93.7275 9.49512C94.5186 10.2744 94.9141 11.2969 94.9141 12.5625C94.9141 13.8223 94.5068 14.8447 93.6924 15.6299C92.8838 16.415 91.835 16.8076 90.5459 16.8076H87.9795V21H85.7119V8.31738ZM87.9795 10.1719V14.9795H90.0361C90.8506 14.9795 91.4834 14.7686 91.9346 14.3467C92.3857 13.9248 92.6113 13.3301 92.6113 12.5625C92.6113 11.8008 92.3857 11.2119 91.9346 10.7959C91.4893 10.3799 90.8594 10.1719 90.0449 10.1719H87.9795ZM96.3555 21V11.6836H98.4561V13.3096H98.5C98.6582 12.7412 98.9307 12.3018 99.3174 11.9912C99.71 11.6807 100.182 11.5254 100.732 11.5254C100.926 11.5254 101.154 11.5547 101.418 11.6133V13.5908C101.201 13.5088 100.905 13.4678 100.53 13.4678C99.9092 13.4678 99.4229 13.6553 99.0713 14.0303C98.7197 14.4053 98.5439 14.9209 98.5439 15.5771V21H96.3555ZM106.208 13.1865C105.599 13.1865 105.089 13.3975 104.679 13.8193C104.274 14.2354 104.049 14.7715 104.002 15.4277H108.353C108.329 14.7656 108.121 14.2266 107.729 13.8105C107.336 13.3945 106.829 13.1865 106.208 13.1865ZM108.361 18.2139H110.409C110.269 19.0986 109.82 19.8164 109.064 20.3672C108.309 20.9121 107.383 21.1846 106.287 21.1846C104.893 21.1846 103.797 20.7568 103 19.9014C102.203 19.04 101.805 17.8652 101.805 16.377C101.805 14.9004 102.2 13.7168 102.991 12.8262C103.788 11.9355 104.857 11.4902 106.199 11.4902C107.518 11.4902 108.563 11.915 109.337 12.7646C110.11 13.6084 110.497 14.7393 110.497 16.1572V16.8691H103.984V17.001C103.984 17.751 104.195 18.3545 104.617 18.8115C105.045 19.2686 105.616 19.4971 106.331 19.4971C106.835 19.4971 107.269 19.3828 107.632 19.1543C108.001 18.9199 108.244 18.6064 108.361 18.2139ZM115.393 21.1494C114.215 21.1494 113.274 20.7158 112.571 19.8486C111.874 18.9814 111.525 17.8096 111.525 16.333C111.525 14.8623 111.874 13.6934 112.571 12.8262C113.274 11.959 114.215 11.5254 115.393 11.5254C116.049 11.5254 116.629 11.6807 117.133 11.9912C117.643 12.3018 118.023 12.7207 118.275 13.248H118.328V8.31738H120.517V21H118.372V19.4092H118.337C118.079 19.9424 117.689 20.3672 117.168 20.6836C116.652 20.9941 116.061 21.1494 115.393 21.1494ZM116.052 13.3271C115.349 13.3271 114.792 13.5996 114.382 14.1445C113.972 14.6836 113.767 15.416 113.767 16.3418C113.767 17.2734 113.969 18.0088 114.373 18.5479C114.783 19.0869 115.343 19.3564 116.052 19.3564C116.743 19.3564 117.297 19.084 117.713 18.5391C118.129 17.9941 118.337 17.2617 118.337 16.3418C118.337 15.4277 118.129 14.6982 117.713 14.1533C117.297 13.6025 116.743 13.3271 116.052 13.3271ZM122.406 21V11.6836H124.595V21H122.406ZM124.357 10.1191C124.123 10.3477 123.836 10.4619 123.496 10.4619C123.156 10.4619 122.869 10.3477 122.635 10.1191C122.4 9.88477 122.283 9.60352 122.283 9.27539C122.283 8.94141 122.4 8.66016 122.635 8.43164C122.869 8.19727 123.156 8.08008 123.496 8.08008C123.836 8.08008 124.123 8.19727 124.357 8.43164C124.598 8.66016 124.718 8.94141 124.718 9.27539C124.718 9.60352 124.598 9.88477 124.357 10.1191ZM134.641 15.0059H132.575C132.481 14.4844 132.259 14.0654 131.907 13.749C131.556 13.4268 131.099 13.2656 130.536 13.2656C129.845 13.2656 129.294 13.541 128.884 14.0918C128.474 14.6367 128.269 15.3867 128.269 16.3418C128.269 17.3086 128.474 18.0645 128.884 18.6094C129.294 19.1484 129.851 19.418 130.554 19.418C131.104 19.418 131.556 19.2715 131.907 18.9785C132.259 18.6797 132.484 18.2637 132.584 17.7305H134.649C134.562 18.7734 134.143 19.6113 133.393 20.2441C132.648 20.8711 131.693 21.1846 130.527 21.1846C129.156 21.1846 128.066 20.7539 127.258 19.8926C126.449 19.0254 126.045 17.8418 126.045 16.3418C126.045 14.8594 126.449 13.6816 127.258 12.8086C128.066 11.9297 129.15 11.4902 130.51 11.4902C131.705 11.4902 132.672 11.8242 133.41 12.4922C134.154 13.1543 134.564 13.9922 134.641 15.0059ZM136.565 9.50391H138.754V11.6836H140.512V13.3711H138.754V18.2139C138.754 18.5947 138.845 18.876 139.026 19.0576C139.208 19.2393 139.492 19.3301 139.879 19.3301C140.137 19.3301 140.345 19.3154 140.503 19.2861V20.9561C140.239 21.0146 139.861 21.0439 139.369 21.0439C138.361 21.0439 137.641 20.8506 137.207 20.4639C136.779 20.0771 136.565 19.4297 136.565 18.5215V13.3711H135.229V11.6836H136.565V9.50391Z" fill="#1C2336"/>
<path fill-rule="evenodd" clip-rule="evenodd" d="M17.3494 29.8171C24.5176 28.6895 30 22.485 30 15C30 6.71573 23.2843 0 15 0C6.71573 0 0 6.71573 0 15C0 22.5218 5.53644 28.7505 12.7565 29.8334L12.9086 28.4824H11.5422C11.8269 28.1453 12.2938 26.9317 11.8838 24.7741C11.4739 22.6165 11.713 21.1781 11.8838 20.7286C10.6313 20.2229 8.46788 18.5036 9.83426 15.6718C11.5422 13.1434 13.2502 12.4691 14.1042 12.3005V11.6263H12.7378C12.624 10.7273 12.6012 8.62591 13.421 8.08651C14.4458 7.41227 16.6662 7.07514 17.3494 9.435H16.6662C16.78 10.1092 16.9736 11.4577 16.1538 11.4577V12.132C17.0078 12.132 18.545 12.4691 18.545 14.1547C17.691 14.1547 15.6414 14.4918 14.4458 15.6718C15.6414 14.9975 18.7157 13.649 20.4237 14.9975C20.9361 15.5032 20.4237 17.8631 17.8618 16.0089C18.2034 16.6831 18.8865 17.0203 19.7405 17.0203C19.5752 17.2651 19.4498 17.4802 19.3306 17.6849C18.9573 18.3258 18.644 18.8637 17.3494 19.8858C17.3865 19.9408 17.4317 20.0038 17.4828 20.0749C17.9017 20.6581 18.7157 21.7914 18.7157 23.5942C18.7157 25.2123 19.6267 26.1788 20.0821 26.4597C19.8544 26.7968 18.989 27.5048 17.3494 27.6396V29.8171ZM15.129 29.9995V26.7968L14.7875 29.9985C14.8582 29.9995 14.929 30 15 30C15.043 30 15.086 29.9998 15.129 29.9995ZM12.2254 18.0316C11.5422 17.7507 10.6199 16.7506 12.3962 14.9975C12.5329 15.8066 12.3393 17.3574 12.2254 18.0316ZM13.0794 20.2229C11.8497 20.3578 11.9977 19.2678 12.2254 18.7059C12.2254 20.5938 14.7305 19.7172 15.983 19.043C15.5275 19.3801 14.3092 20.0881 13.0794 20.2229ZM16.837 20.0544C15.4706 21.1332 13.3071 21.0657 12.3962 20.8972C13.9729 22.6088 15.1129 21.5913 16.488 20.364C16.6026 20.2618 16.7188 20.1581 16.837 20.0544Z" fill="#0085FF"/>
</svg>
