<svg width="32" height="32" viewBox="0 0 32 32" fill="none" xmlns="http://www.w3.org/2000/svg">
<circle cx="16" cy="16" r="16" fill="#EBECF0"/>
<path d="M9.8335 11.0029C10.0866 11.0029 10.2958 11.191 10.3289 11.4351L10.3335 11.5029V20.502C10.3335 20.7782 10.1096 21.002 9.8335 21.002C9.58037 21.002 9.37117 20.8139 9.33806 20.5699L9.3335 20.502V11.5029C9.3335 11.2268 9.55735 11.0029 9.8335 11.0029ZM18.14 12.2584L18.1955 12.1956C18.4358 11.9553 18.814 11.9368 19.0755 12.1402L19.1383 12.1957L22.4694 15.5274C22.7095 15.7676 22.7281 16.1455 22.525 16.407L22.4696 16.4699L19.1386 19.8055C18.8784 20.066 18.4563 20.0663 18.1957 19.8061C17.9553 19.566 17.9365 19.1878 18.1397 18.9262L18.1951 18.8633L20.3875 16.6669L12.0002 16.667C11.6583 16.667 11.3765 16.4096 11.338 16.0781L11.3335 16.0003C11.3335 15.6585 11.5909 15.3767 11.9224 15.3382L12.0002 15.3337L20.3895 15.3336L18.1954 13.1384C17.9551 12.898 17.9366 12.5199 18.14 12.2584L18.1955 12.1956L18.14 12.2584Z" fill="#1C2336"/>
</svg>
